<?xml version="1.0" standalone="no"?>
<!DOCTYPE svg PUBLIC "-//W3C//DTD SVG 20010904//EN"
 "http://www.w3.org/TR/2001/REC-SVG-20010904/DTD/svg10.dtd">
<svg version="1.0" xmlns="http://www.w3.org/2000/svg"
 width="300.000000pt" height="66.000000pt" viewBox="0 0 300.000000 66.000000"
 preserveAspectRatio="xMidYMid meet">
<metadata>
Created by potrace 1.10, written by Peter Selinger 2001-2011
</metadata>
<g transform="translate(0.000000,66.000000) scale(0.100000,-0.100000)"
fill="#fcb026" stroke="none">
<path d="M460 620 c-31 -4 -65 -12 -76 -18 -12 -6 -44 -12 -72 -14 -27 -2 -48
-6 -45 -10 2 -5 -19 -8 -46 -8 -30 0 -51 -5 -51 -11 0 -6 -8 -9 -18 -6 -17 4
-77 -34 -98 -62 -24 -32 -36 -116 -23 -167 16 -61 71 -124 108 -124 15 0 31
-4 36 -9 6 -6 57 -17 115 -26 58 -9 119 -21 136 -26 19 -6 298 -9 675 -9 623
0 644 1 676 20 19 11 39 20 46 20 6 0 28 18 48 40 l37 40 331 0 c329 0 331 0
383 -24 126 -58 146 -66 174 -66 58 0 106 21 155 69 l49 47 0 95 0 95 -44 46
c-24 26 -52 51 -62 56 -28 14 -183 9 -193 -6 -4 -7 -12 -12 -17 -11 -5 1 -29
-7 -54 -19 -43 -21 -59 -22 -389 -22 l-344 0 -21 25 c-11 13 -42 35 -69 49
l-48 26 -605 0 c-334 0 -614 4 -623 8 -9 5 -41 5 -71 2z m687 -30 c601 0 615
0 620 -19 4 -14 15 -21 42 -23 33 -3 36 -6 39 -35 l3 -33 390 0 c323 0 389 2
389 14 0 16 134 66 177 66 44 -1 108 -34 138 -74 48 -63 47 -169 -2 -227 -32
-37 -95 -68 -139 -69 -36 0 -154 45 -170 66 -9 12 -75 14 -398 14 l-386 0 0
-35 c0 -34 -1 -35 -39 -35 -30 0 -40 -4 -44 -20 -5 -20 -14 -20 -634 -22 -345
-1 -637 -2 -648 -1 -11 0 -95 16 -187 35 -177 36 -201 47 -234 110 -32 62 -6
173 49 208 30 19 355 89 391 84 16 -2 305 -4 643 -4z"/>
<path d="M477 574 c-4 -4 -7 -97 -7 -206 0 -185 1 -199 18 -196 15 3 17 21 17
202 0 188 -5 223 -28 200z"/>
<path d="M295 539 c-77 -16 -150 -35 -163 -41 -70 -36 -84 -161 -23 -221 29
-29 45 -35 186 -63 l155 -31 0 193 c0 107 -3 193 -7 193 -5 -1 -71 -14 -148
-30z m123 -22 c8 -6 12 -46 12 -141 0 -140 -5 -158 -45 -149 -11 2 -35 4 -53
3 -19 0 -31 3 -28 9 3 5 -3 7 -13 4 -13 -3 -23 2 -30 16 -12 21 -5 25 37 24
19 -1 52 56 52 89 0 59 -38 98 -100 103 -87 7 -133 -105 -70 -172 33 -35 22
-49 -22 -27 -26 14 -55 51 -50 67 1 4 -2 7 -6 7 -5 0 -9 14 -9 30 0 46 52 99
102 106 22 3 47 8 55 11 8 3 22 7 30 9 38 7 50 10 54 15 8 8 70 5 84 -4z
m-114 -92 c33 -30 34 -68 1 -100 -59 -60 -156 -1 -125 76 21 51 82 63 124 24z"/>
<path d="M216 417 c-39 -28 -13 -97 36 -97 22 0 58 34 58 55 0 21 -36 55 -58
55 -10 0 -26 -6 -36 -13z m50 -54 c-3 -3 -13 -2 -23 2 -17 7 -17 8 2 15 19 7
34 -5 21 -17z"/>
<path d="M530 568 c0 -2 -1 -90 -3 -196 l-2 -192 613 0 612 0 0 195 0 195
-610 0 c-335 0 -610 -1 -610 -2z m1181 -39 c15 -15 18 -35 18 -144 0 -71 -5
-138 -11 -151 l-11 -24 -567 0 c-427 0 -569 3 -578 12 -19 19 -16 282 3 302
13 13 67 15 382 16 202 0 368 2 370 3 1 2 87 4 189 4 167 1 188 -1 205 -18z"/>
<path d="M2715 516 l-60 -24 -3 -115 -3 -115 70 -27 c52 -21 80 -26 108 -22
76 13 133 80 133 159 0 60 -19 98 -65 134 -49 37 -104 40 -180 10z m114 -12
c46 -10 21 -35 -31 -32 -32 2 -43 -3 -63 -27 -30 -34 -33 -89 -8 -125 24 -35
29 -38 89 -37 40 0 57 4 64 16 8 13 9 12 10 -6 0 -14 -6 -23 -15 -23 -9 0 -18
-7 -21 -15 -4 -10 -14 -13 -33 -9 -20 4 -23 3 -11 -5 13 -9 12 -11 -4 -11 -11
0 -27 7 -36 15 -9 8 -27 16 -40 18 -40 6 -57 39 -59 115 -2 76 10 95 72 118
41 15 48 15 86 8z m65 -41 c23 -28 17 -30 -12 -4 -12 10 -19 21 -15 25 3 3 7
5 7 4 1 -2 10 -13 20 -25z m-27 -35 c61 -57 -11 -153 -92 -122 -24 10 -46 60
-39 89 13 54 88 73 131 33z"/>
<path d="M2765 406 c-21 -32 -5 -73 31 -82 33 -8 56 5 68 39 20 57 -66 94 -99
43z m59 -39 c-8 -22 -20 -22 -28 0 -7 18 14 37 27 24 4 -4 5 -15 1 -24z"/>
<path d="M1770 375 l0 -155 30 0 30 0 0 155 0 155 -30 0 -30 0 0 -155z"/>
<path d="M1850 375 l0 -85 390 0 390 0 0 85 0 85 -390 0 -390 0 0 -85z m746
41 c9 -10 11 -17 4 -21 -8 -5 -7 -11 0 -20 9 -11 6 -19 -12 -37 l-23 -23 -325
0 c-312 0 -326 1 -345 20 -25 24 -27 65 -4 85 24 22 682 18 705 -4z"/>
<path d="M0 25 c0 -13 173 -15 1500 -15 1327 0 1500 2 1500 15 0 13 -173 15
-1500 15 -1327 0 -1500 -2 -1500 -15z"/>
</g>
</svg>
