<?xml version="1.0" standalone="no"?>
<!DOCTYPE svg PUBLIC "-//W3C//DTD SVG 20010904//EN"
 "http://www.w3.org/TR/2001/REC-SVG-20010904/DTD/svg10.dtd">
<svg version="1.0" xmlns="http://www.w3.org/2000/svg"
 width="242.000000pt" height="208.000000pt" viewBox="0 0 242.000000 208.000000"
 preserveAspectRatio="xMidYMid meet">
<metadata>
Created by potrace 1.10, written by Peter Selinger 2001-2011
</metadata>
<g transform="translate(0.000000,208.000000) scale(0.100000,-0.100000)"
fill="#fcb026" stroke="none">
<path d="M1485 2054 c-84 -43 -134 -124 -135 -215 0 -50 7 -71 59 -170 32 -63
66 -128 76 -145 l19 -31 -174 -239 c-96 -131 -186 -250 -201 -264 -41 -38
-239 -309 -239 -328 -1 -41 -26 -55 -89 -50 -59 4 -62 3 -97 -33 -32 -33 -39
-36 -77 -32 -54 6 -323 -63 -332 -85 -10 -26 14 -40 78 -47 34 -3 74 -8 89
-11 23 -5 27 -2 22 10 -3 9 -15 16 -26 16 -39 0 -111 23 -97 31 14 7 103 31
164 43 l30 6 -27 -15 c-16 -9 -28 -17 -28 -20 0 -2 26 -1 57 2 57 5 58 5 35
-12 -17 -12 -34 -16 -59 -12 l-35 6 23 -19 c12 -11 29 -20 37 -20 9 0 -1 -16
-26 -42 -23 -23 -42 -45 -42 -48 0 -3 -16 -4 -35 -2 -36 4 -39 22 -5 22 11 0
24 9 31 21 9 18 8 20 -8 15 -10 -3 -80 -19 -156 -35 -76 -17 -142 -33 -147
-36 -6 -4 -10 -15 -10 -26 0 -24 28 -36 109 -45 34 -3 61 -9 61 -13 0 -3 -66
-31 -146 -61 -188 -71 -202 -80 -168 -114 10 -11 34 -16 73 -16 32 0 62 -5 69
-12 15 -15 305 -22 296 -7 -7 12 22 23 43 15 15 -6 14 -8 -2 -20 -19 -14 6
-12 159 12 29 5 113 5 186 0 l133 -9 68 40 c68 39 69 39 115 25 49 -15 64 -12
64 12 0 8 6 14 14 14 29 0 46 -13 46 -34 0 -20 7 -23 80 -32 79 -9 81 -9 86
13 5 17 13 23 35 23 24 0 29 -4 29 -25 0 -25 1 -25 85 -25 84 0 85 0 85 25 0
21 5 25 30 25 22 0 30 -5 30 -18 0 -10 2 -21 5 -24 3 -3 42 4 86 15 74 18 80
22 75 42 -4 17 1 25 22 34 24 11 28 10 40 -8 14 -20 14 -19 60 10 85 53 98 65
83 82 -18 22 24 65 48 50 13 -9 24 2 63 60 40 61 45 72 32 82 -22 16 1 65 29
62 18 -2 24 9 43 73 21 73 21 75 2 84 -10 5 -16 16 -13 24 3 7 5 22 5 33 0 10
7 19 15 19 18 0 18 30 2 110 -9 41 -16 55 -30 55 -9 0 -24 12 -31 27 -13 25
-13 29 2 37 14 8 13 14 -12 53 -16 23 -37 53 -48 64 -18 20 -18 26 -7 82 12
58 15 61 54 77 79 30 145 120 144 195 0 19 -3 28 -6 20 -33 -99 -78 -156 -148
-189 -50 -23 -62 -41 -75 -108 -8 -46 -7 -51 32 -110 25 -39 38 -69 34 -79 -6
-17 -26 5 -95 104 l-23 33 17 77 c20 90 30 112 51 112 26 0 91 38 113 66 36
45 46 96 31 150 -22 78 -76 119 -169 129 -82 8 -125 23 -207 73 -51 30 -103
65 -116 77 -35 32 -91 104 -108 139 -21 42 -98 106 -129 107 -54 2 -83 -3
-104 -19 -45 -37 -65 -64 -77 -106 -11 -41 -10 -51 16 -118 23 -61 92 -187
136 -249 11 -16 -33 -82 -227 -339 -22 -30 -62 -85 -88 -122 -42 -60 -50 -66
-66 -56 -22 13 -48 -27 264 402 36 49 65 94 65 100 -1 6 -14 34 -30 61 -62
104 -113 221 -118 268 -9 89 40 171 125 209 23 10 45 23 48 28 10 15 -37 12
-70 -6z m177 -104 c21 -17 52 -58 69 -91 40 -75 125 -154 226 -211 106 -59
128 -66 199 -67 46 -1 69 -7 95 -24 62 -41 86 -125 54 -186 -20 -40 -70 -79
-110 -87 -19 -3 -39 -12 -45 -19 -6 -7 -21 -55 -33 -107 l-23 -93 48 -63 c61
-80 82 -122 103 -203 20 -75 16 -165 -11 -247 -17 -52 -19 -54 -47 -48 -16 3
-49 6 -74 6 l-44 0 18 33 c29 51 24 186 -9 257 -52 112 -163 234 -302 330
l-48 32 20 22 c43 47 182 246 182 260 0 18 -32 37 -46 28 -6 -4 -188 -249
-404 -545 -216 -296 -396 -534 -400 -530 -4 4 -26 43 -50 86 -40 75 -41 79
-21 84 11 3 67 69 128 151 138 186 139 187 124 228 -11 32 -10 35 170 280 182
249 317 421 328 417 4 -1 54 -29 112 -63 l106 -61 -5 -68 c-4 -55 -1 -74 17
-109 26 -51 95 -102 114 -83 9 9 1 21 -35 52 -61 52 -77 100 -54 168 12 36 12
49 3 57 -21 20 -258 154 -270 154 -7 -1 -42 -39 -78 -85 l-67 -85 -55 97
c-116 208 -120 219 -87 282 42 83 135 106 202 51z m49 -777 c-5 -10 -22 -29
-37 -43 -24 -22 -23 -20 6 18 35 44 47 54 31 25z m73 -98 c226 -170 326 -359
269 -510 -16 -43 -22 -50 -43 -48 -77 8 -604 43 -653 44 -32 1 -56 5 -55 9 4
10 402 559 406 559 2 1 36 -24 76 -54z m-572 -122 c10 -9 18 -22 18 -30 0 -13
-157 -233 -211 -297 -24 -27 -30 -29 -55 -21 -54 19 -44 48 61 190 122 164
131 175 152 175 9 0 25 -7 35 -17z m1086 -125 c14 -14 17 -128 3 -128 -5 0
-12 25 -16 57 -4 31 -9 62 -12 70 -6 16 9 17 25 1z m7 -218 c11 -19 -17 -95
-45 -121 -35 -33 -46 -26 -20 11 11 15 25 48 32 74 12 45 21 55 33 36z m-1377
-27 c-1 -5 5 -19 13 -33 64 -103 109 -194 101 -202 -5 -5 -84 -22 -174 -38
-132 -22 -184 -27 -259 -22 -52 2 -96 8 -99 13 -3 4 51 66 120 138 l125 131
73 0 c41 0 72 4 72 10 0 6 7 10 15 10 8 0 14 -3 13 -7z m323 -36 l-34 -32 28
38 c15 21 30 35 33 32 3 -3 -9 -20 -27 -38z m484 -47 c231 -17 431 -31 444
-33 23 -2 22 -5 -28 -79 -61 -91 -118 -143 -195 -181 -176 -86 -429 -97 -752
-32 -182 37 -173 28 -116 105 173 239 183 250 205 250 12 0 211 -14 442 -30z
m-1085 0 c0 -5 -11 -10 -24 -10 -14 0 -28 5 -31 10 -4 6 7 10 24 10 17 0 31
-4 31 -10z m1546 -166 c-17 -25 -33 -38 -50 -39 -27 -1 -26 3 16 56 15 20 28
40 28 43 0 4 6 13 13 20 10 12 13 9 15 -15 2 -18 -6 -42 -22 -65z m-1125 -28
c-28 -42 -51 -80 -51 -85 0 -19 51 -49 93 -56 101 -15 132 -53 39 -47 -32 2
-62 -2 -81 -12 -39 -21 -58 -21 -42 -2 17 20 -6 54 -41 61 -35 8 -35 13 2 49
33 33 48 68 31 74 -19 6 -12 22 15 32 14 6 28 19 31 30 3 11 14 20 24 20 11 0
19 5 19 12 0 6 3 9 6 5 4 -3 -17 -40 -45 -81z m-702 8 c-12 -14 -8 -15 35 -9
36 6 50 4 56 -6 12 -19 2 -30 -23 -25 -12 3 -35 7 -52 11 l-30 5 24 -20 c27
-23 68 -26 90 -6 14 12 21 12 46 1 l30 -13 -38 -1 c-20 -1 -45 -5 -55 -11 -27
-15 -85 -38 -109 -43 -20 -5 -21 -3 -11 16 9 17 7 24 -11 38 -11 9 -39 20 -61
24 -22 4 -42 11 -45 15 -5 9 101 38 144 39 20 1 22 -1 10 -15z m641 -31 c-1
-5 -13 -23 -28 -40 -26 -30 -31 -32 -63 -23 -64 18 -129 28 -129 20 0 -5 6
-10 13 -13 6 -2 10 -7 7 -10 -3 -3 -35 2 -70 11 -60 15 -63 17 -35 23 17 4 55
7 85 8 30 1 87 8 125 15 88 17 95 18 95 9z m1072 -40 c-5 -10 -7 -23 -5 -30 5
-13 -57 -63 -80 -63 -50 0 -46 13 20 60 80 57 76 55 65 33z m-1265 -65 l213
-52 -38 -21 c-37 -21 -45 -21 -162 -13 -102 8 -143 7 -228 -7 -78 -13 -129
-16 -208 -10 -102 7 -105 8 -120 36 -12 23 -12 29 -1 29 7 0 53 17 103 37 76
31 116 41 214 52 8 1 111 -22 227 -51z m-561 -24 c-9 -8 -21 -12 -28 -8 -8 5
-6 10 8 15 31 12 37 10 20 -7z m1620 -30 c-3 -9 -6 -19 -6 -24 0 -5 -21 -13
-47 -19 -40 -8 -51 -7 -65 6 -23 21 -14 33 25 33 18 0 39 5 47 10 25 16 53 12
46 -6z m-1725 -30 c-4 -18 -14 -29 -24 -28 -65 3 -77 5 -77 12 0 6 102 53 107
48 1 -1 -1 -15 -6 -32z m83 3 c11 -18 0 -47 -21 -54 -12 -4 -43 23 -43 37 0
14 31 41 43 37 6 -2 15 -11 21 -20z m1203 9 c10 -10 -19 -36 -41 -36 -42 0
-96 21 -96 37 0 13 10 15 66 10 36 -2 68 -7 71 -11z m223 -10 c0 -27 -16 -36
-64 -36 -48 0 -76 12 -76 32 0 4 32 8 70 8 39 0 70 -2 70 -4z"/>
<path d="M1511 1934 c-17 -14 -36 -42 -42 -63 -22 -73 34 -146 112 -146 75 0
119 47 119 126 0 93 -116 145 -189 83z m64 -11 c-17 -2 -40 -16 -52 -31 -14
-16 -23 -21 -23 -13 0 28 32 51 69 50 33 -2 34 -2 6 -6z m68 -5 c9 -7 19 -26
22 -43 l7 -30 -17 30 c-9 17 -23 36 -32 43 -9 6 -12 12 -7 12 6 0 18 -6 27
-12z m-21 -35 c22 -20 23 -56 2 -77 -18 -19 -65 -21 -82 -4 -7 7 -12 24 -12
39 0 52 54 77 92 42z"/>
<path d="M2115 1541 c-53 -22 -81 -91 -62 -149 35 -106 184 -107 227 -1 29 70
-32 160 -108 158 -20 0 -46 -4 -57 -8z m83 -67 c42 -29 17 -104 -35 -104 -22
0 -53 38 -53 64 0 24 32 56 55 56 6 0 21 -7 33 -16z m52 -92 c0 -8 -53 -42
-66 -42 -4 0 8 11 27 24 40 29 39 28 39 18z"/>
<path d="M1137 924 c-13 -13 -7 -52 9 -58 22 -9 46 13 42 38 -3 21 -37 34 -51
20z"/>
<path d="M1055 804 c-9 -9 -14 -23 -11 -31 3 -8 6 -17 6 -19 0 -9 37 -3 48 8
18 18 15 36 -7 48 -15 7 -24 6 -36 -6z"/>
<path d="M964 685 c-10 -25 4 -45 30 -45 28 0 37 17 24 43 -11 21 -46 23 -54
2z"/>
<path d="M882 523 c2 -22 8 -28 28 -28 20 0 25 5 25 25 0 20 -6 26 -28 28 -26
3 -28 1 -25 -25z"/>
<path d="M967 403 c-12 -11 -8 -40 8 -53 18 -15 45 2 45 30 0 23 -37 39 -53
23z"/>
<path d="M761 377 c-24 -29 17 -70 46 -46 8 7 13 22 11 33 -4 25 -40 33 -57
13z"/>
<path d="M1933 357 c-41 -22 -41 -22 -27 -49 8 -16 17 -28 19 -28 2 0 25 10
49 22 l45 22 -17 28 c-19 33 -16 33 -69 5z"/>
<path d="M1142 311 c-10 -30 -10 -30 39 -46 28 -10 52 -15 53 -14 2 2 7 18 10
35 6 28 4 32 -21 37 -15 4 -38 9 -49 13 -17 4 -24 0 -32 -25z"/>
<path d="M1795 304 c-22 -7 -52 -13 -67 -13 -25 -1 -27 -3 -21 -33 3 -18 7
-34 8 -36 1 -2 32 5 69 14 66 16 70 21 58 59 -7 19 -10 20 -47 9z"/>
<path d="M1310 289 c0 -8 -3 -23 -6 -35 -5 -19 0 -22 65 -31 64 -8 71 -7 71 8
0 10 3 24 6 32 4 11 -6 16 -43 21 -26 4 -58 10 -70 13 -15 3 -23 1 -23 -8z"/>
<path d="M1510 245 l0 -35 70 0 70 0 -3 35 -2 35 -67 0 -68 0 0 -35z"/>
<path d="M1616 2056 c3 -8 18 -16 34 -20 40 -8 101 -65 129 -121 27 -54 131
-163 176 -185 17 -8 55 -30 85 -47 42 -25 67 -33 105 -33 130 0 191 -43 247
-175 l17 -40 0 33 c1 42 -23 100 -57 135 -44 46 -97 68 -181 74 -69 5 -84 11
-167 59 -98 57 -154 111 -199 190 -37 65 -72 102 -117 125 -44 23 -80 25 -72
5z"/>
</g>
</svg>
