<?xml version="1.0" standalone="no"?>
<!DOCTYPE svg PUBLIC "-//W3C//DTD SVG 20010904//EN"
 "http://www.w3.org/TR/2001/REC-SVG-20010904/DTD/svg10.dtd">
<svg version="1.0" xmlns="http://www.w3.org/2000/svg"
 width="110.000000pt" height="97.000000pt" viewBox="0 0 110.000000 97.000000"
 preserveAspectRatio="xMidYMid meet">
<metadata>
Created by potrace 1.10, written by Peter Selinger 2001-2011
</metadata>
<g transform="translate(0.000000,97.000000) scale(0.100000,-0.100000)"
fill="#fcb026" stroke="none">
<path d="M350 924 c-14 -2 -67 -11 -117 -20 -87 -15 -93 -17 -93 -40 0 -16 6
-24 18 -24 14 0 8 -20 -40 -116 -31 -64 -64 -137 -72 -163 -8 -25 -21 -68 -30
-94 -15 -46 -15 -48 4 -42 13 4 22 0 29 -14 13 -23 -2 -37 -32 -33 -14 3 3
-38 73 -177 l90 -181 255 0 254 0 128 192 c147 223 150 231 117 358 -27 102
-77 240 -100 276 l-17 26 34 -6 c190 -32 204 -33 205 -2 2 28 -1 29 -121 46
-73 11 -541 22 -585 14z m200 -254 l0 -219 -32 -5 c-18 -3 -98 -8 -178 -11
-80 -4 -178 -8 -217 -11 -40 -2 -73 -2 -73 0 0 2 23 61 51 132 50 127 117 261
144 288 14 14 131 34 230 39 28 2 56 4 63 5 9 2 12 -48 12 -218z m209 191 c35
-35 109 -205 117 -270 2 -19 11 -59 18 -89 17 -63 23 -51 -123 -267 -111 -165
-113 -167 -145 -171 l-26 -3 0 410 0 409 70 0 c56 0 74 -4 89 -19z m-209 -628
l0 -168 -167 2 -168 2 -60 118 c-33 66 -68 132 -78 147 -10 15 -16 30 -13 33
4 4 309 25 454 32 l32 1 0 -167z"/>
</g>
</svg>
