<?xml version="1.0" standalone="no"?>
<!DOCTYPE svg PUBLIC "-//W3C//DTD SVG 20010904//EN"
 "http://www.w3.org/TR/2001/REC-SVG-20010904/DTD/svg10.dtd">
<svg version="1.0" xmlns="http://www.w3.org/2000/svg"
 width="222.000000pt" height="164.000000pt" viewBox="0 0 222.000000 164.000000"
 preserveAspectRatio="xMidYMid meet">
<metadata>
Created by potrace 1.10, written by Peter Selinger 2001-2011
</metadata>
<g transform="translate(0.000000,164.000000) scale(0.050000,-0.050000)"
fill="#fcb026" stroke="none">
<path d="M1520 2739 c-298 -53 -300 -54 -300 -102 0 -24 15 -54 34 -67 31 -23
20 -54 -118 -353 -224 -484 -290 -709 -213 -721 58 -8 97 -71 59 -95 -16 -9
-40 -13 -53 -8 -65 25 -33 -62 171 -471 l219 -442 651 0 650 0 273 415 c310
471 387 618 387 738 0 148 -184 732 -289 921 -27 48 -40 86 -31 86 10 0 136
-19 281 -42 287 -47 363 -32 307 57 -70 111 -1531 171 -2028 84z m727 -104
c18 -66 16 -1051 -2 -1062 -19 -11 -1245 -80 -1254 -70 -20 20 318 790 419
958 83 136 110 148 413 187 334 43 410 41 424 -13z m529 -6 c98 -69 276 -505
344 -843 l45 -225 -56 -95 c-85 -147 -528 -799 -567 -834 -19 -17 -63 -37 -98
-44 l-64 -13 0 1043 0 1042 176 0 c127 0 187 -9 220 -31z m-516 -1621 l0 -433
-45 12 c-25 7 -217 13 -427 13 l-383 0 -66 135 c-36 74 -124 241 -194 371 -71
131 -125 240 -121 245 13 12 889 80 1131 86 l105 3 0 -432z"/>
</g>
</svg>
