
<svg version="1.1" id="Compact_Trackloader_Icon" xmlns="http://www.w3.org/2000/svg"
    xmlns:xlink="http://www.w3.org/1999/xlink" x="0px" y="0px" viewBox="0 0 200 200"
    style="enable-background:new 0 0 200 200;" xml:space="preserve">
    <defs>
        <style>
            .st0 {
                fill: none;
                stroke: #FCB026;
                stroke-width: 2.85;
                stroke-miterlimit: 10;
            }

            .st1 {
                fill: none;
                stroke: #FCB026;
                stroke-width: 2.85;
                stroke-miterlimit: 2;
            }

            .st2 {
                fill: none;
                stroke: #FCB026;
                stroke-width: 2.85;
                stroke-linejoin: round;
                stroke-miterlimit: 2;
            }

            .product-range-component .container:hover figure:hover .st0 .st1 .st2 {
                fill: none;
                stroke: #DD970C;
            }
        </style>
    </defs>
    <path class="st0" d="M138,136.53h6.28l15.25-7.28-2.25-26.42s.54-4.94-6.58-6.16l-22.23-3.12"></path>
    <path class="st0"
        d="M82,127.74S90.38,90,91.33,86c1.75-7.67,8.43-7.79,8.43-7.79l18-1.13a9.8,9.8,0,0,1,10,9.31c.63,6.75,2.39,27,2.39,27a4.81,4.81,0,0,1-3.89,5.53">
    </path>
    <path class="st0" d="M87.19,79.75a69.72,69.72,0,0,1,11.66-1.43"></path>
    <polygon class="st1"
        points="65.25 125.49 44.08 136.53 44.25 140.25 40.5 144.33 62.5 144.33 70.47 137.88 65.25 125.49"></polygon>
    <path class="st1" d="M128.3,92l16.56-6h5.67c5.67,0,3.75,4.5,3.75,4.5l-2.34,6.38"></path>
    <path class="st0" d="M86.86,105.81s-4.3-.55-8.24,7.18c-2.79,5.48-10,18.76-10,18.76l2.5,8.5,6-2.77"></path>
    <path class="st0" d="M129.2,101.57s-3.38.87-5.21,1.32a5,5,0,0,0-4,4.79l-18.66,5s-1.12-4-4.64-2.9l-11.38,2.78">
    </path>
    <path class="st0"
        d="M82.46,127.6l35.81-9.86s5.74-2.19,9.13,2.42,9.15,11.91,9.15,11.91,2.69,3.63.65,7.25-6.47,3.34-6.47,3.34h-46s-7.55,0-7.55-7.76A7.46,7.46,0,0,1,82.46,127.6Z">
    </path>
    <circle class="st2" cx="85.35" cy="134.91" r="3.36"></circle>
    <circle class="st2" cx="129.2" cy="134.91" r="3.36"></circle>
    <circle class="st2" cx="121.6" cy="124.97" r="3.36"></circle>
    <path class="st2" d="M85.35,131.55h26.89l5,1h9.54a3,3,0,0,0-.94,2.33,3.08,3.08,0,0,0,.94,2.37H87.57"></path>
</svg>
