<?xml version="1.0" standalone="no"?>
<!DOCTYPE svg PUBLIC "-//W3C//DTD SVG 20010904//EN"
 "http://www.w3.org/TR/2001/REC-SVG-20010904/DTD/svg10.dtd">
<svg version="1.0" xmlns="http://www.w3.org/2000/svg"
 width="300.000000pt" height="218.000000pt" viewBox="0 0 300.000000 218.000000"
 preserveAspectRatio="xMidYMid meet">
<metadata>
Created by potrace 1.10, written by Peter Selinger 2001-2011
</metadata>
<g transform="translate(0.000000,218.000000) scale(0.050000,-0.050000)"
fill="#fcb026" stroke="none">
<path d="M5607 4329 c0 -15 7 -23 16 -17 10 6 17 3 17 -7 0 -29 76 -24 88 6 6
16 2 29 -9 29 -10 0 -19 -11 -19 -25 -1 -17 -6 -16 -19 4 -23 37 -74 44 -74
10z"/>
<path d="M5853 4210 c-7 -19 -4 -27 7 -20 11 7 20 3 20 -9 0 -11 26 -21 57
-21 34 0 56 11 56 27 0 14 -12 26 -26 26 -15 0 -27 -9 -27 -19 0 -11 -17 -5
-38 14 -33 30 -38 31 -49 2z"/>
<path d="M1984 3905 l6 -95 240 0 c132 0 238 -7 235 -15 -3 -8 -5 -96 -5 -195
l0 -180 -252 0 -252 0 -133 -104 c-73 -58 -188 -152 -255 -210 l-122 -106
-203 0 -203 0 0 -240 0 -240 -186 0 -186 0 8 240 9 240 -103 0 -102 0 0 -850
0 -850 102 0 103 0 -9 240 -8 240 187 0 186 0 -2 -425 -2 -425 425 -2 425 -3
252 -182 c138 -100 289 -210 334 -244 l84 -61 1086 -1 1087 0 -7 411 -7 412
87 0 87 0 -7 -280 -7 -280 332 0 332 0 0 1140 0 1140 -332 0 -332 0 7 -300 7
-300 -87 0 -88 0 9 299 8 300 -220 5 -220 6 -180 216 -181 216 -361 -3 -360
-2 0 196 0 196 235 -6 235 -7 0 102 0 102 -851 0 -851 0 6 -95z m1036 -295 l0
-200 -184 3 -185 4 -1 196 -1 197 185 0 186 0 0 -200z m874 -420 c20 -27 75
-92 122 -145 48 -52 115 -134 150 -182 l64 -87 158 7 158 7 -4 -296 -5 -295
267 5 266 6 -7 293 -7 292 152 -1 152 -1 0 -956 0 -957 -153 0 -152 0 9 280 9
280 -268 0 -267 0 3 -415 4 -415 -952 -5 -951 -5 -236 171 c-130 94 -289 208
-354 253 l-118 82 -362 2 -362 2 0 850 0 850 151 10 c166 11 129 -10 485 285
l162 135 925 0 925 0 36 -50z m-2854 -1040 l0 -190 -185 0 -185 0 0 190 0 190
185 0 185 0 0 -190z"/>
</g>
</svg>
