<?xml version="1.0" standalone="no"?>
<!DOCTYPE svg PUBLIC "-//W3C//DTD SVG 20010904//EN"
 "http://www.w3.org/TR/2001/REC-SVG-20010904/DTD/svg10.dtd">
<svg version="1.0" xmlns="http://www.w3.org/2000/svg"
 width="161.000000pt" height="50.000000pt" viewBox="0 0 161.000000 50.000000"
 preserveAspectRatio="xMidYMid meet">
<metadata>
Created by potrace 1.10, written by Peter Selinger 2001-2011
</metadata>
<g transform="translate(0.000000,50.000000) scale(0.100000,-0.100000)"
fill="#fcb026" stroke="none">
<path d="M596 485 c-22 -9 -54 -27 -73 -41 -18 -14 -33 -21 -33 -17 0 5 -11
21 -25 36 -33 35 -102 38 -146 7 l-28 -21 -3 -127 -3 -127 -28 -3 c-33 -4 -55
11 -59 41 -2 14 4 26 17 32 11 6 22 22 23 35 2 14 8 29 13 34 5 6 9 15 9 20 0
6 -5 4 -10 -4 -8 -13 -10 -12 -10 3 0 9 4 17 9 17 16 0 -8 75 -30 93 -30 24
-138 24 -168 0 -18 -15 -21 -30 -23 -95 -1 -46 3 -82 10 -90 8 -11 7 -20 -7
-42 -31 -47 -13 -145 35 -188 29 -25 91 -38 184 -38 107 0 152 12 198 55 l37
33 37 -33 c52 -48 98 -57 267 -53 129 3 151 6 190 26 l44 23 24 -23 c23 -22
29 -22 237 -22 202 0 214 1 249 22 22 14 44 41 58 69 22 46 22 47 5 92 -10 25
-18 57 -17 71 7 128 1 147 -63 194 -25 19 -44 21 -230 24 l-203 3 -32 -27 -32
-27 -27 20 c-46 34 -85 41 -223 41 -94 1 -146 -3 -173 -13z m-376 -120 l0 -85
-85 0 -85 0 0 85 0 85 85 0 85 0 0 -85z m230 -80 l0 -165 -29 -32 -29 -33
-141 0 c-139 0 -141 0 -168 27 -22 22 -27 39 -31 88 l-4 60 61 0 c60 0 61 0
61 -28 0 -15 5 -33 12 -40 16 -16 120 -16 136 0 8 8 12 56 12 150 l0 138 60 0
60 0 0 -165z m505 153 c33 -15 55 -56 55 -103 l0 -35 -64 0 c-59 0 -65 2 -68
23 -3 21 -8 22 -108 25 -128 3 -140 -5 -140 -97 0 -83 12 -95 104 -99 106 -6
144 3 152 33 6 23 11 25 65 25 l59 0 0 -45 c0 -35 -6 -52 -29 -77 l-29 -33
-187 0 -187 0 -34 37 -34 38 0 115 c0 132 12 168 63 190 42 19 344 21 382 3z
m566 -26 c39 -44 41 -102 3 -137 -15 -14 -22 -25 -15 -25 6 0 20 -9 31 -20 25
-25 27 -105 5 -137 -25 -35 -77 -43 -287 -43 l-198 0 0 201 0 200 216 -3 216
-3 29 -33z m-651 -127 c19 -14 41 -25 49 -25 9 -1 3 -7 -14 -14 -16 -7 -41
-23 -54 -35 -19 -17 -37 -21 -87 -21 -73 0 -94 14 -94 64 0 47 15 56 95 56 60
0 76 -4 105 -25z m150 -28 c0 -9 -12 -11 -42 -8 -41 5 -42 5 -13 12 47 10 55
10 55 -4z"/>
<path d="M70 412 c0 -5 7 -29 16 -54 12 -36 19 -45 33 -41 13 3 17 11 14 24
-3 10 -8 17 -12 15 -11 -7 -28 8 -35 32 -5 13 -3 22 3 22 6 0 14 -12 17 -27 7
-25 8 -25 15 -8 7 20 8 20 8 0 1 -16 3 -17 11 -5 5 8 12 11 17 7 4 -5 1 -12
-6 -16 -15 -10 -7 -31 12 -31 27 0 38 17 31 44 -5 21 -11 26 -25 23 -12 -3
-17 -1 -12 6 4 6 -2 8 -15 5 -12 -4 -25 -2 -28 3 -7 11 -44 12 -44 1z"/>
<path d="M1182 329 l3 -32 114 1 c120 1 139 8 120 44 -8 16 -24 18 -125 18
l-115 0 3 -31z"/>
<path d="M1182 179 l3 -32 119 1 c66 1 123 5 129 11 5 5 6 18 2 30 -6 20 -13
21 -131 21 l-125 0 3 -31z"/>
</g>
</svg>
