 <svg version="1.0" xmlns="http://www.w3.org/2000/svg"  width="300.000000pt" height="66.000000pt" viewBox="0 0 300.000000 66.000000"  preserveAspectRatio="xMidYMid meet">  <g transform="translate(0.000000,66.000000) scale(0.100000,-0.100000)" fill="#fcb026" stroke="none"> <path d="M426 609 c2 -4 -18 -10 -44 -14 -26 -3 -63 -10 -82 -15 -19 -5 -62 -14 -95 -20 -101 -20 -133 -41 -159 -104 -24 -58 -21 -121 10 -174 32 -55 54 -77 79 -79 45 -4 118 -21 100 -23 -24 -3 44 -16 135 -25 36 -4 69 -9 73 -12 5 -3 302 -5 660 -5 641 0 652 1 675 21 12 11 29 18 37 14 8 -3 15 0 15 6 0 6 6 10 12 8 7 -1 17 12 22 30 l10 32 373 1 c229 0 373 -3 373 -9 0 -5 20 -17 45 -27 25 -9 45 -20 45 -24 0 -5 10 -6 23 -3 16 3 18 2 9 -5 -10 -7 -4 -11 22 -16 43 -8 134 3 116 14 -8 5 -5 9 9 13 12 3 22 5 24 4 9 -5 52 46 68 82 39 89 14 204 -56 252 -18 13 -31 27 -28 32 3 5 -1 7 -8 6 -8 -1 -34 1 -59 5 -36 6 -59 3 -105 -14 -33 -12 -69 -24 -80 -27 -11 -4 -23 -10 -26 -15 -3 -4 -172 -9 -375 -11 l-369 -2 -10 30 c-7 22 -17 31 -38 33 -16 2 -37 12 -48 23 -18 18 -41 19 -636 20 -340 1 -641 2 -670 3 -28 0 -49 -2 -47 -5z m714 -23 c615 -1 624 -1 630 -21 4 -15 13 -20 40 -20 32 0 35 -3 38 -32 l3 -33 389 0 c314 0 389 3 393 13 3 8 39 26 81 41 87 32 127 30 188 -10 93 -60 104 -211 21 -286 -25 -23 -86 -48 -118 -48 -31 0 -156 48 -171 66 -9 11 -90 14 -397 16 l-386 3 -3 -35 c-3 -32 -6 -35 -39 -38 -27 -2 -38 -9 -42 -23 -5 -19 -20 -19 -639 -21 -348 -1 -640 -1 -648 -1 -8 1 -91 17 -183 36 -182 38 -206 50 -233 114 -18 42 -18 107 0 141 33 62 56 73 243 112 98 21 185 35 193 32 8 -3 296 -6 640 -6z"/> <path d="M470 375 c0 -198 1 -205 20 -205 19 0 20 7 20 205 0 198 -1 205 -20 205 -19 0 -20 -7 -20 -205z"/> <path d="M291 539 c-153 -32 -183 -45 -207 -92 -32 -61 -8 -168 45 -196 9 -5 77 -21 151 -36 74 -14 144 -28 155 -31 19 -5 20 0 20 191 0 124 -4 195 -10 194 -5 0 -75 -14 -154 -30z m140 -160 c-1 -90 -4 -165 -6 -167 -3 -3 -12 1 -22 9 -11 9 -14 10 -9 2 11 -19 -4 -16 -27 4 -11 10 -17 12 -12 4 5 -10 3 -12 -11 -8 -11 3 -50 11 -89 17 -38 7 -79 18 -90 23 -11 6 -24 11 -30 12 -5 0 -10 5 -10 11 0 6 -8 18 -18 28 -19 19 -23 79 -8 119 9 24 60 57 88 57 7 0 21 4 31 9 16 8 134 33 174 36 10 1 21 4 24 8 4 4 9 5 12 3 2 -2 3 -78 3 -167z"/> <path d="M413 445 c0 -33 2 -45 4 -27 2 18 2 45 0 60 -2 15 -4 0 -4 -33z"/> <path d="M215 460 c-69 -29 -87 -101 -36 -149 16 -15 34 -25 41 -23 8 3 10 0 6 -7 -9 -14 -11 -14 44 3 61 18 88 61 72 114 -17 55 -75 84 -127 62z m69 -21 c37 -17 51 -60 32 -97 -24 -47 -99 -52 -128 -8 -18 26 -8 75 18 95 30 24 43 26 78 10z"/> <path d="M203 404 c-15 -24 -15 -29 -2 -53 26 -46 109 -33 109 18 0 58 -75 83 -107 35z m68 -1 c0 -5 2 -18 3 -30 2 -19 -2 -23 -25 -23 -33 0 -47 26 -18 35 10 4 19 11 19 16 0 11 20 12 21 2z"/> <path d="M412 340 c0 -14 2 -19 5 -12 2 6 2 18 0 25 -3 6 -5 1 -5 -13z"/> <path d="M520 375 l0 -195 615 0 615 0 0 195 0 195 -615 0 -615 0 0 -195z m51 163 c0 -10 2 -10 6 0 4 10 125 12 578 12 l573 -1 2 -172 1 -172 -588 0 -588 0 -5 150 c-3 83 -3 160 -1 173 4 23 20 31 22 10z"/> <path d="M953 533 c37 -2 96 -2 130 0 34 2 4 3 -68 3 -71 0 -99 -1 -62 -3z"/> <path d="M2713 518 l-63 -22 0 -95 c0 -53 -3 -105 -6 -117 -5 -17 4 -24 63 -47 77 -30 121 -34 161 -13 92 48 123 166 65 244 -52 70 -119 85 -220 50z m117 -8 c0 -5 6 -7 14 -4 7 3 30 -10 51 -29 33 -30 38 -41 42 -90 4 -56 -12 -107 -39 -123 -10 -6 -10 -4 -3 7 6 9 4 8 -5 -2 -34 -36 -110 -54 -125 -29 -3 6 -14 10 -24 10 -28 0 -71 24 -66 37 2 7 0 15 -6 18 -5 4 -6 11 -3 17 4 6 6 41 5 77 -2 63 -1 67 27 83 16 10 32 15 36 11 3 -3 6 -1 6 6 0 8 7 11 15 7 8 -3 15 -1 15 4 0 6 14 10 30 10 17 0 30 -4 30 -10z"/> <path d="M2765 460 c-4 -6 -11 -8 -16 -5 -5 4 -9 0 -9 -9 0 -8 -5 -16 -11 -18 -10 -3 -13 -41 -7 -83 9 -60 107 -82 160 -35 15 12 24 28 21 34 -4 6 0 5 9 -2 15 -12 15 -9 1 35 -8 26 -15 54 -16 60 0 7 -2 11 -5 8 -3 -2 -14 2 -26 10 -23 17 -92 20 -101 5z m104 -36 c28 -35 26 -69 -4 -99 -30 -30 -64 -32 -99 -4 -33 26 -36 79 -6 109 30 30 83 27 109 -6z"/> <path d="M2775 416 c-29 -29 -31 -43 -9 -74 29 -42 104 -18 104 34 0 26 -20 50 -47 59 -17 4 -29 -1 -48 -19z m70 -34 c2 -28 -22 -43 -52 -31 -26 10 -30 27 -8 35 8 4 12 10 9 16 -4 5 5 8 22 6 20 -2 28 -9 29 -26z"/> <path d="M2808 243 c7 -3 16 -2 19 1 4 3 -2 6 -13 5 -11 0 -14 -3 -6 -6z"/> <path d="M1770 375 l0 -155 30 0 30 0 0 155 0 155 -30 0 -30 0 0 -155z m37 0 c0 -74 -4 -135 -8 -135 -5 0 -9 61 -9 135 0 74 4 135 9 135 4 0 8 -61 8 -135z"/> <path d="M1850 375 l0 -85 390 0 390 0 0 85 0 85 -390 0 -390 0 0 -85z m550 60 c118 2 209 2 203 -1 -7 -3 -13 -10 -13 -15 0 -6 5 -7 10 -4 6 4 10 -10 10 -34 0 -26 -5 -41 -12 -42 -10 0 -10 -2 0 -6 45 -18 -27 -22 -357 -22 l-368 0 -2 66 c-2 61 0 65 19 60 11 -3 20 -2 20 1 0 4 62 4 137 0 76 -3 235 -5 353 -3z"/> <path d="M0 20 c0 -7 507 -10 1500 -10 993 0 1500 3 1500 10 0 7 -507 10 -1500 10 -993 0 -1500 -3 -1500 -10z"/> </g> </svg> 