
<svg version="1.1" id="Telescopic_Wheeled_Loader_Icon" xmlns="http://www.w3.org/2000/svg"
    xmlns:xlink="http://www.w3.org/1999/xlink" x="0px" y="0px" viewBox="0 0 200 200"
    style="enable-background:new 0 0 200 200;" xml:space="preserve">
    <style>
        .st1 {
            fill: none;
            stroke: #FCB026;
            stroke-width: 2.85;
            stroke-miterlimit: 10;
        }

        .st2 {
            fill: none;
            stroke: #FCB026;
            stroke-width: 2.85;
            stroke-miterlimit: 2;
        }

        .product-range-component .container:hover figure:hover .st1 .st2 {
            fill: none;
            stroke: #DD970C;
        }
    </style>
    <defs>
    </defs>
    <g>
        <circle class="st1" cx="143.1" cy="126.9" r="15.7"></circle>
        <circle class="st1" cx="143.1" cy="126.9" r="7.4"></circle>
        <circle class="st1" cx="75.1" cy="126.9" r="15.7"></circle>
        <circle class="st1" cx="75.1" cy="126.9" r="7.4"></circle>
        <path class="st1" d="M154.5,109.5c0,0-0.1-26.5-2.8-35c-1.5-3.9-7.5-3.7-7.5-3.7l-14.2,0.3c0,0-2.5-0.5-4.9,4.3
        c-2.4,4.8-10.1,16.5-10.8,51.5h13.1"></path>
        <path class="st1" d="M155,72.9c0,0-3.7-2.2-10.7-2.2"></path>
        <path class="st1" d="M153.7,86.8l23.8,5.7c0,0,4.9,1.3,6,8.4s0.7,13.3,0.7,13.3s1,1.3,1,3.9s0.2,3.9,0,4.1
        c-0.2,0.1-19.8,8.5-19.8,8.5l-6.5-3.1"></path>
        <path class="st1" d="M184.1,114.3l-25.3-0.4c-5.5-7.4-12.2-8.5-18.7-7.4c-5.7,0.9-9.3,4.3-9.3,4.3h-15.5">
        </path>
        <line class="st1" x1="140.1" y1="106.5" x2="140.1" y2="70.9"></line>
        <polyline class="st1" points="164.8,84 162.3,85.5 162.3,88.9 	"></polyline>
        <line class="st1" x1="120.7" y1="71.7" x2="130.1" y2="71.1"></line>
        <line class="st1" x1="140.1" y1="92.3" x2="154" y2="92.3"></line>
        <path class="st2" d="M59.9,122.9c-4.4,0-9.7,14.4-9.7,14.4h-4.2c0,0-2.1-19.7,2.2-21.1c4.3-1.4,4-6.2,4-6.2l48.3-16.3
        c0,0,3.6-7.3,12.2-5l-9.3,38.2H90.8"></path>
        <line class="st1" x1="57.9" y1="108.2" x2="61.3" y2="118.3"></line>
        <line class="st1" x1="106.4" y1="114.9" x2="114.7" y2="114.9"></line>
        <line class="st1" x1="90.8" y1="112.8" x2="100.6" y2="93.7"></line>
        <path class="st1" d="M76.6,106c0,0,15.3-1.9,19.4,16.9"></path>
        <path class="st1" d="M46,120.2c0,0-0.4-3.9-5.1-2.7c-3.5,0.9-16.9,4.5-22.6,6c-1.6,0.4-3.3-0.1-3.5,0.2l16,12.2
        c0,0,8.4,6.2,15.2-1.7"></path>
        <line class="st1" x1="104.1" y1="124.8" x2="114.7" y2="124.8"></line>
    </g>
</svg>
