
<svg version="1.1" id="Tracked_Excavators_Icon" xmlns="http://www.w3.org/2000/svg"
    xmlns:xlink="http://www.w3.org/1999/xlink" x="0px" y="0px" viewBox="0 0 200 200"
    style="enable-background:new 0 0 200 200;" xml:space="preserve">
    <style type="text/css">
        .st0 {
            fill: none;
            stroke: #FCB026;
            stroke-width: 2.85;
            stroke-miterlimit: 2;
        }

        .st1 {
            fill: none;
            stroke: #FCB026;
            stroke-width: 2.85;
            stroke-linejoin: round;
            stroke-miterlimit: 5;
        }

        .st2 {
            fill: none;
            stroke: #FCB026;
            stroke-width: 2.85;
            stroke-miterlimit: 1;
        }

        .st3 {
            fill: none;
            stroke: #FCB026;
            stroke-width: 2.85;
            stroke-linejoin: round;
            stroke-miterlimit: 2;
        }

        .product-range-component .container:hover figure:hover .st0 .st1 .st2 .st3 {
            fill: none;
            stroke: #DD970C;
        }
    </style>
    <defs>
    </defs>
    <path class="st0" d="M110.4,124h74.7l1.3-5.6l-1.7-5.1l-0.6-6.6c0,0-2.6-5.4-8.4-5.4s-31.4,0-31.4,0l-3-8.9c0,0-0.5-2.9-4.8-2.9
        c-1.6,0-15.2-0.4-15.2-0.4c-7.7,0-8.3,7.2-8.3,7.2l-3.1,24.4L110.4,124z"></path>
    <polyline class="st0" points="144.1,101.5 131.1,113.6 131.1,124 "></polyline>
    <path class="st1" d="M173.3,94.7c-1.1,1-2.1,1.9-2.1,1.9l0.1,4.4"></path>
    <path class="st2" d="M82.6,135.7l-44.2-11.1l44-18.1c0,0,8.7-3.7,22.1-0.9c7,1.6,7,1.6,7,1.6"></path>
    <path class="st2"
        d="M112.4,97.3c-0.2-0.2-10.5-5.1-10.5-5.1s-9.8-4.7-19-0.3s-67.2,35-67.2,35l-2.1,3.6l21.9,9.9l47.6,0.3">
    </path>
    <path class="st0" d="M83.1,140.5c-0.3-19.3-16.8-20.4-16.8-20.4l-0.1-0.9c0,0,6.8-1.5,16.7-1.6c14.8-0.2,11.4,9.2,11.4,9.2l-3.3,8.1
        l-6.6,6.3L83.1,140.5z"></path>
    <line class="st3" x1="147.4" y1="124" x2="145.9" y2="128.3"></line>
    <line class="st3" x1="123.6" y1="124" x2="125" y2="128.3"></line>
    <path class="st3" d="M102,129.9c0,0-6.6,0.4-6.6,6.7s6.6,6.5,6.6,6.5h67c0,0,6.6-0.2,6.6-6.5s-6.6-6.7-6.6-6.7l-24.4-1.7h-18.2
        L102,129.9z"></path>
    <circle class="st3" cx="169" cy="136.4" r="2.7"></circle>
    <circle class="st3" cx="101.9" cy="136.4" r="2.7"></circle>
    <line class="st3" x1="101.9" y1="133.8" x2="169" y2="133.8"></line>
    <line class="st3" x1="101.9" y1="139.1" x2="169" y2="139.1"></line>
</svg>
